<svg xmlns="http://www.w3.org/2000/svg" viewBox="0 0 499.3 404.39"><defs><style>.cls-1{fill:#ffffff;}</style></defs><title>Camada 1</title><g id="Camada_2" data-name="Camada 2"><g id="Camada_1-2" data-name="Camada 1"><path class="cls-1" d="M419.19,235.52a566.73,566.73,0,0,1-77.88,69.94q-5.88,4.41-11.95,8.73Q312.77,326,296,336.32,277.89,347.53,259.8,357c-108,56.37-210.41,64.49-246.66,13.54C-29.13,311.11,33.93,193,154.67,101.42q7.49-5.69,15.28-11.23,3.36-2.39,6.72-4.71v17.6q-11.35,8.25-22,16.82c-98.3,78.85-150.09,173.53-117,220,22.57,31.71,79.32,33.43,147,10a467.69,467.69,0,0,0,76-34.69,575.34,575.34,0,0,0,51.38-32.67c14.14-10.06,27.51-20.5,40-31.18a492.15,492.15,0,0,0,56.66-56.45c50.71-60,71.4-119.13,47.41-152.84-25.57-35.93-95-33.37-174.48.63q-13.34,5.69-27,12.56V39.81q13.61-6.57,27-12.09c91.6-37.79,173-38.09,204.49,6.16C518.56,79.4,489.09,159.39,419.19,235.52Z"/><path class="cls-1" d="M346.37,312.24q-6,4.5-12.16,8.9-16.89,12-33.93,22.53-16.57,10.24-33.09,19c14.94,10.56,32.25,16.61,50.7,16.61,56.49,0,102.28-56.56,102.28-126.33,0-2-.06-4-.13-6A582.07,582.07,0,0,1,346.37,312.24Z"/><path class="cls-1" d="M254.72,307.23l.62-.35a89.3,89.3,0,0,1-7.8-19.08,109.8,109.8,0,0,1,0-58.66c8.08-28.48,27.6-48.56,50.39-48.56,25.34,0,46.61,24.82,52.64,58.41a466.22,466.22,0,0,0,47.14-47.93q3-3.56,5.85-7.09c-18.26-34.51-49.8-57.32-85.67-57.32-27.25,0-52,13.17-70.35,34.63V12.81H184.67V339.55A455.18,455.18,0,0,0,254.72,307.23Z"/></g></g></svg>