<?xml version="1.0" encoding="iso-8859-1"?>
<!-- Generator: Adobe Illustrator 18.1.1, SVG Export Plug-In . SVG Version: 6.00 Build 0)  -->
<svg version="1.1" id="Capa_1" xmlns="http://www.w3.org/2000/svg" xmlns:xlink="http://www.w3.org/1999/xlink" x="0px" y="0px"
	 viewBox="0 0 611.999 611.999" style="enable-background:new 0 0 611.999 611.999;" xml:space="preserve">
<g>
	<path style="fill: #FFA600" d="M393.524,206.971c-12.621-13.821-19.104-31.728-18.253-50.426c0.85-18.695,8.932-35.943,22.75-48.565l78.65-71.809
		c12.943-11.817,29.718-18.324,47.232-18.324c19.651,0,38.516,8.316,51.759,22.821l7.871,8.626c1.147,1.259,2.162,2.601,3.108,3.98
		L405.085,219.042c-1.296-1.067-2.548-2.196-3.693-3.448L393.524,206.971z M26.162,558.202c1.144,1.253,2.397,2.381,3.693,3.448
		l181.553-165.768c-0.946-1.382-1.961-2.725-3.108-3.983l-7.871-8.619c-13.243-14.505-32.108-22.824-51.759-22.824
		c-17.517,0-34.289,6.507-47.232,18.324l-78.647,71.812c-28.533,26.05-30.55,70.458-4.5,98.994L26.162,558.202z M591.942,90.315
		L441.458,227.714c9.151,7.623,19.496,13.496,30.738,17.399c-10.71,27.03-38.303,85.287-92.431,134.708
		c-54.506,49.768-119.146,75.013-148.641,84.669c-2.889-11.325-7.744-21.955-14.39-31.595L66.25,570.294
		c13.732,11.437,30.148,18.933,48.227,21.803c0.04,0.006,0.077,0.012,0.118,0.022c0,0,0.721,0.13,2.295,0.349l0.383,0.053
		c4.494,0.609,14.112,1.63,28.029,1.63c0.003,0,0.003,0,0.006,0c60.289,0,181.377-18.228,315.046-140.275
		C635.237,294.207,612.635,155.75,609.218,139.455C607.879,121.52,601.935,104.808,591.942,90.315z"/>
</g>
<g>
</g>
<g>
</g>
<g>
</g>
<g>
</g>
<g>
</g>
<g>
</g>
<g>
</g>
<g>
</g>
<g>
</g>
<g>
</g>
<g>
</g>
<g>
</g>
<g>
</g>
<g>
</g>
<g>
</g>
</svg>
